<svg width="163" height="134" viewBox="0 0 163 134" fill="none" xmlns="http://www.w3.org/2000/svg">
<g clip-path="url(#clip0)">
<path d="M10.18 22.12C9.3 23.8267 8.86 26.08 8.86 28.88C8.86 31.68 9.3 33.9333 10.18 35.64C11.06 37.3467 12.4333 38.2 14.3 38.2C16.1667 38.2 17.54 37.3467 18.42 35.64C19.3 33.9333 19.74 31.68 19.74 28.88C19.74 26.08 19.3 23.8267 18.42 22.12C17.54 20.4133 16.1667 19.56 14.3 19.56C12.4333 19.56 11.06 20.4133 10.18 22.12ZM14.3 43.32C10.4333 43.32 7.54 42.0133 5.62 39.4C3.7 36.76 2.74 33.2533 2.74 28.88C2.74 24.48 3.7 20.9733 5.62 18.36C7.54 15.72 10.4333 14.4 14.3 14.4C18.1667 14.4 21.06 15.72 22.98 18.36C24.9 20.9733 25.86 24.48 25.86 28.88C25.86 33.2533 24.9 36.76 22.98 39.4C21.06 42.0133 18.1667 43.32 14.3 43.32Z" fill="#23A6F0"/>
<path d="M48.26 19.22C48.26 20.0947 47.94 20.8467 47.3 21.476C46.66 22.0947 45.7373 22.4787 44.532 22.628V24.42H42.932V22.676C42.1427 22.6333 41.3907 22.4947 40.676 22.26C39.9613 22.0253 39.3853 21.7373 38.948 21.396L39.828 19.444C40.2333 19.7427 40.708 19.9933 41.252 20.196C41.796 20.3987 42.356 20.5267 42.932 20.58V17.908C42.1747 17.7267 41.5347 17.524 41.012 17.3C40.4893 17.076 40.052 16.7507 39.7 16.324C39.348 15.8867 39.172 15.3107 39.172 14.596C39.172 13.7107 39.492 12.9533 40.132 12.324C40.7827 11.684 41.716 11.2947 42.932 11.156V9.38H44.532V11.124C45.844 11.2307 46.9267 11.556 47.78 12.1L46.98 14.068C46.18 13.6093 45.364 13.332 44.532 13.236V15.956C45.2787 16.1267 45.908 16.324 46.42 16.548C46.9427 16.7613 47.38 17.0867 47.732 17.524C48.084 17.9507 48.26 18.516 48.26 19.22ZM41.748 14.468C41.748 14.7347 41.8493 14.9533 42.052 15.124C42.2547 15.2947 42.548 15.4387 42.932 15.556V13.284C42.5267 13.38 42.228 13.5347 42.036 13.748C41.844 13.9507 41.748 14.1907 41.748 14.468ZM44.532 20.516C44.916 20.4307 45.204 20.292 45.396 20.1C45.588 19.908 45.684 19.6787 45.684 19.412C45.684 19.1453 45.5827 18.9267 45.38 18.756C45.188 18.5853 44.9053 18.436 44.532 18.308V20.516Z" fill="#23A6F0"/>
<path d="M43.848 35.7C44.6973 35.7 45.4347 35.84 46.06 36.12C46.6947 36.4 47.18 36.8013 47.516 37.324C47.852 37.8467 48.02 38.4673 48.02 39.186C48.02 39.8953 47.852 40.516 47.516 41.048C47.18 41.5707 46.6947 41.972 46.06 42.252C45.4347 42.532 44.6973 42.672 43.848 42.672H41.636V45.5H39.816V35.7H43.848ZM43.764 41.132C44.5573 41.132 45.1593 40.964 45.57 40.628C45.9807 40.292 46.186 39.8113 46.186 39.186C46.186 38.5607 45.9807 38.08 45.57 37.744C45.1593 37.408 44.5573 37.24 43.764 37.24H41.636V41.132H43.764ZM56.8701 41.804C56.8701 41.9253 56.8608 42.098 56.8421 42.322H50.9761C51.0788 42.8727 51.3448 43.3113 51.7741 43.638C52.2128 43.9553 52.7541 44.114 53.3981 44.114C54.2195 44.114 54.8961 43.8433 55.4281 43.302L56.3661 44.38C56.0301 44.7813 55.6055 45.0847 55.0921 45.29C54.5788 45.4953 54.0001 45.598 53.3561 45.598C52.5348 45.598 51.8115 45.4347 51.1861 45.108C50.5608 44.7813 50.0755 44.3287 49.7301 43.75C49.3941 43.162 49.2261 42.4993 49.2261 41.762C49.2261 41.034 49.3895 40.3807 49.7161 39.802C50.0521 39.214 50.5141 38.7567 51.1021 38.43C51.6901 38.1033 52.3528 37.94 53.0901 37.94C53.8181 37.94 54.4668 38.1033 55.0361 38.43C55.6148 38.7473 56.0628 39.2 56.3801 39.788C56.7068 40.3667 56.8701 41.0387 56.8701 41.804ZM53.0901 39.34C52.5301 39.34 52.0541 39.508 51.6621 39.844C51.2795 40.1707 51.0461 40.6093 50.9621 41.16H55.2041C55.1295 40.6187 54.9008 40.18 54.5181 39.844C54.1355 39.508 53.6595 39.34 53.0901 39.34ZM60.4171 39.116C60.9211 38.332 61.8078 37.94 63.0771 37.94V39.606C62.9278 39.578 62.7925 39.564 62.6711 39.564C61.9898 39.564 61.4578 39.7647 61.0751 40.166C60.6925 40.558 60.5011 41.1273 60.5011 41.874V45.5H58.7511V38.024H60.4171V39.116ZM78.0692 45.5L78.0552 39.004L74.8352 44.38H74.0232L70.8032 39.088V45.5H69.0672V35.7H70.5652L74.4572 42.196L78.2792 35.7H79.7772L79.7912 45.5H78.0692ZM85.8303 45.598C85.0743 45.598 84.3929 45.4347 83.7863 45.108C83.1796 44.7813 82.7036 44.3287 82.3583 43.75C82.0223 43.162 81.8543 42.4993 81.8543 41.762C81.8543 41.0247 82.0223 40.3667 82.3583 39.788C82.7036 39.2093 83.1796 38.7567 83.7863 38.43C84.3929 38.1033 85.0743 37.94 85.8303 37.94C86.5956 37.94 87.2816 38.1033 87.8883 38.43C88.4949 38.7567 88.9663 39.2093 89.3023 39.788C89.6476 40.3667 89.8203 41.0247 89.8203 41.762C89.8203 42.4993 89.6476 43.162 89.3023 43.75C88.9663 44.3287 88.4949 44.7813 87.8883 45.108C87.2816 45.4347 86.5956 45.598 85.8303 45.598ZM85.8303 44.1C86.4743 44.1 87.0063 43.8853 87.4263 43.456C87.8463 43.0267 88.0563 42.462 88.0563 41.762C88.0563 41.062 87.8463 40.4973 87.4263 40.068C87.0063 39.6387 86.4743 39.424 85.8303 39.424C85.1863 39.424 84.6543 39.6387 84.2343 40.068C83.8236 40.4973 83.6183 41.062 83.6183 41.762C83.6183 42.462 83.8236 43.0267 84.2343 43.456C84.6543 43.8853 85.1863 44.1 85.8303 44.1ZM95.9357 37.94C96.8784 37.94 97.6344 38.2153 98.2037 38.766C98.773 39.3167 99.0577 40.1333 99.0577 41.216V45.5H97.3077V41.44C97.3077 40.7867 97.1537 40.2967 96.8457 39.97C96.5377 39.634 96.099 39.466 95.5297 39.466C94.8857 39.466 94.377 39.662 94.0037 40.054C93.6304 40.4367 93.4437 40.992 93.4437 41.72V45.5H91.6937V38.024H93.3597V38.99C93.649 38.6447 94.013 38.3833 94.4517 38.206C94.8904 38.0287 95.385 37.94 95.9357 37.94ZM105.972 45.094C105.766 45.262 105.514 45.388 105.216 45.472C104.926 45.556 104.618 45.598 104.292 45.598C103.47 45.598 102.836 45.3833 102.388 44.954C101.94 44.5247 101.716 43.8993 101.716 43.078V39.48H100.484V38.08H101.716V36.372H103.466V38.08H105.468V39.48H103.466V43.036C103.466 43.4 103.554 43.68 103.732 43.876C103.909 44.0627 104.166 44.156 104.502 44.156C104.894 44.156 105.22 44.0533 105.482 43.848L105.972 45.094ZM111.853 37.94C112.796 37.94 113.552 38.2153 114.121 38.766C114.691 39.3167 114.975 40.1333 114.975 41.216V45.5H113.225V41.44C113.225 40.7867 113.071 40.2967 112.763 39.97C112.455 39.634 112.017 39.466 111.447 39.466C110.803 39.466 110.295 39.662 109.921 40.054C109.548 40.4367 109.361 40.992 109.361 41.72V45.5H107.611V35.112H109.361V38.892C109.651 38.584 110.005 38.3507 110.425 38.192C110.855 38.024 111.331 37.94 111.853 37.94Z" fill="#8EC2F2"/>
</g>
<rect x="0.5" y="82" width="162" height="52" rx="5" fill="#23A6F0"/>
<path d="M46.291 105.104V113H44.107V105.104H41.335V103.214H49.063V105.104H46.291ZM54.6165 107.316C53.9912 107.316 53.5245 107.54 53.2165 107.988C52.9085 108.427 52.7545 109.01 52.7545 109.738V113H50.6545V105.468H52.7545V106.462C53.0252 106.154 53.3612 105.893 53.7625 105.678C54.1732 105.463 54.5885 105.351 55.0085 105.342L55.0225 107.316H54.6165ZM57.9124 115.968C57.1751 115.968 56.4797 115.669 55.8264 115.072L56.7784 113.518C57.1331 113.863 57.4971 114.036 57.8704 114.036C58.0664 114.036 58.2344 113.938 58.3744 113.742C58.5144 113.555 58.5844 113.355 58.5844 113.14C58.5844 112.925 57.6137 110.368 55.6724 105.468H57.9124L59.7464 110.158L61.5804 105.468H63.8204L60.3204 114.344C60.1151 114.857 59.7931 115.254 59.3544 115.534C58.9251 115.823 58.4444 115.968 57.9124 115.968ZM71.4656 105.034V105.538H73.2856V107.05H71.4656V113H69.3516V107.05H68.4696V105.538H69.3516V105.076C69.3516 104.255 69.599 103.606 70.0936 103.13C70.5976 102.645 71.2183 102.402 71.9556 102.402C72.7023 102.402 73.379 102.682 73.9856 103.242L73.2296 104.656C72.9216 104.301 72.581 104.124 72.2076 104.124C71.993 104.124 71.8156 104.203 71.6756 104.362C71.5356 104.511 71.4656 104.735 71.4656 105.034ZM76.2947 109.234C76.2947 109.85 76.4674 110.354 76.8127 110.746C77.1674 111.129 77.6154 111.32 78.1567 111.32C78.7074 111.32 79.1554 111.129 79.5007 110.746C79.8554 110.354 80.0327 109.85 80.0327 109.234C80.0327 108.618 79.8554 108.114 79.5007 107.722C79.1554 107.33 78.7074 107.134 78.1567 107.134C77.6154 107.134 77.1674 107.33 76.8127 107.722C76.4674 108.114 76.2947 108.618 76.2947 109.234ZM82.1467 109.234C82.1467 110.326 81.7687 111.245 81.0127 111.992C80.2567 112.739 79.3047 113.112 78.1567 113.112C77.018 113.112 76.0707 112.739 75.3147 111.992C74.5587 111.245 74.1807 110.326 74.1807 109.234C74.1807 108.142 74.5587 107.223 75.3147 106.476C76.0707 105.72 77.018 105.342 78.1567 105.342C79.3047 105.342 80.2567 105.72 81.0127 106.476C81.7687 107.223 82.1467 108.142 82.1467 109.234ZM87.8685 107.316C87.2432 107.316 86.7765 107.54 86.4685 107.988C86.1605 108.427 86.0065 109.01 86.0065 109.738V113H83.9065V105.468H86.0065V106.462C86.2772 106.154 86.6132 105.893 87.0145 105.678C87.4252 105.463 87.8405 105.351 88.2605 105.342L88.2745 107.316H87.8685ZM96.2598 105.034V105.538H98.0798V107.05H96.2598V113H94.1458V107.05H93.2638V105.538H94.1458V105.076C94.1458 104.255 94.3931 103.606 94.8878 103.13C95.3918 102.645 96.0124 102.402 96.7498 102.402C97.4964 102.402 98.1731 102.682 98.7798 103.242L98.0238 104.656C97.7158 104.301 97.3751 104.124 97.0018 104.124C96.7871 104.124 96.6098 104.203 96.4698 104.362C96.3298 104.511 96.2598 104.735 96.2598 105.034ZM103.549 107.316C102.923 107.316 102.457 107.54 102.149 107.988C101.841 108.427 101.687 109.01 101.687 109.738V113H99.5866V105.468H101.687V106.462C101.957 106.154 102.293 105.893 102.695 105.678C103.105 105.463 103.521 105.351 103.941 105.342L103.955 107.316H103.549ZM112.066 111.908C111.217 112.711 110.218 113.112 109.07 113.112C107.932 113.112 106.989 112.762 106.242 112.062C105.496 111.353 105.122 110.405 105.122 109.22C105.122 108.035 105.5 107.092 106.256 106.392C107.022 105.692 107.922 105.342 108.958 105.342C109.994 105.342 110.872 105.655 111.59 106.28C112.318 106.905 112.682 107.764 112.682 108.856V109.976H107.194C107.26 110.387 107.474 110.723 107.838 110.984C108.202 111.245 108.613 111.376 109.07 111.376C109.808 111.376 110.414 111.129 110.89 110.634L112.066 111.908ZM110.554 108.478C110.508 108.03 110.34 107.685 110.05 107.442C109.761 107.199 109.406 107.078 108.986 107.078C108.576 107.078 108.198 107.204 107.852 107.456C107.507 107.708 107.306 108.049 107.25 108.478H110.554ZM120.921 111.908C120.071 112.711 119.073 113.112 117.925 113.112C116.786 113.112 115.843 112.762 115.097 112.062C114.35 111.353 113.977 110.405 113.977 109.22C113.977 108.035 114.355 107.092 115.111 106.392C115.876 105.692 116.777 105.342 117.813 105.342C118.849 105.342 119.726 105.655 120.445 106.28C121.173 106.905 121.537 107.764 121.537 108.856V109.976H116.049C116.114 110.387 116.329 110.723 116.693 110.984C117.057 111.245 117.467 111.376 117.925 111.376C118.662 111.376 119.269 111.129 119.745 110.634L120.921 111.908ZM119.409 108.478C119.362 108.03 119.194 107.685 118.905 107.442C118.615 107.199 118.261 107.078 117.841 107.078C117.43 107.078 117.052 107.204 116.707 107.456C116.361 107.708 116.161 108.049 116.105 108.478H119.409Z" fill="white"/>
<defs>
<clipPath id="clip0">
<rect width="116" height="57" fill="white" transform="translate(0.5)"/>
</clipPath>
</defs>
</svg>
